{"title":"Game of Death 2010.720p.BRRip.x264.Feel-Free","uid":6100015,"size":1680383194,"categoryP":"video","categoryS":"hd___movies","magnet":"?xt=urn:btih:5776c6fdef591bcf76427cc61058a93c1f3474ef&amp;dn=Game+of+Death+2010.720p.BRRip.x264.Feel-Free&amp;tr=udp%3A%2F%2Ftracker.openbittorrent.com%3A80&amp;tr=udp%3A%2F%2Fopen.demonii.com%3A1337&amp;tr=udp%3A%2F%2Ftracker.coppersurfer.tk%3A6969&amp;tr=udp%3A%2F%2Fexodus.desync.com%3A6969","seeders":0,"leechers":1,"uploader":"neon","files":-1,"time":1294927923,"description":"Genre:Action | Adventure\nLanguage:English\n &lt;a href=&quot; http://www.imdb.com/title/tt1446072/&quot; rel=&quot;nofollow&quot; target=&quot;_NEW&quot;&gt; http://www.imdb.com/title/tt1446072/&lt;/a&gt;\nSource:.Bluray.720p.DTS.x264-CHD\n\n\nFormat : Matroska\nFile size : 1.56 GiB\nDuration : 1h 25mn\nOverall bit rate : 2 597 Kbps\n\n\nVideo\nFormat settings, CABAC : Yes\nFormat settings, ReFrames : 4 frames\nFormat settings, GOP : M=1, N=3\nCodec ID : V_MPEG4/ISO/AVC\nDuration : 1h 25mn\nBit rate : 2 200 Kbps\nWidth : 1 280 pixels\nHeight : 544 pixels\nDisplay aspect ratio : 2.35:1\nFrame rate mode : Variable\nFrame rate : 23.976 fps\nColor space : YUV\nChroma subsampling : 4:2:0\nBit depth : 8 bits\nScan type : Progressive\nBits/(Pixel*Frame) : 0.132\nStream size : 1.30 GiB (83%)\nWriting library : x264 core 106 r1732 b20059a\n\nAudio\nID : 2\nFormat : AC-3\nFormat/Info : Audio Coding 3\nMode extension : CM (complete main)\nCodec ID : A_AC3\nDuration : 1h 25mn\nBit rate mode : Constant\nBit rate : 384 Kbps\nChannel(s) : 6 channels\nChannel positions : Front: L C R, Side: L R, LFE\nSampling rate : 48.0 KHz\nBit depth : 16 bits\nVideo delay : -1mn 5s\nStream size : 236 MiB (15%)\nLanguage : English\n\n\nPlot:\nSecret Ops agent Marcus is sent to Detroit to take out an arms dealer and the head of the hedge fund that is financing him. His CIA backup has other plans and turns on him and it's a fight to survive in a hospital.\n &lt;a href=&quot;\nhttp://shareimage.org/images/cae0ovlkpnubnpb1vho.png&quot; rel=&quot;nofollow&quot; target=&quot;_NEW&quot;&gt;\nhttp://shareimage.org/images/cae0ovlkpnubnpb1vho.png&lt;/a&gt; &lt;a href=&quot;\nhttp://shareimage.org/images/3tj95y0mb49l4lacn48r.png&quot; rel=&quot;nofollow&quot; target=&quot;_NEW&quot;&gt;\nhttp://shareimage.org/images/3tj95y0mb49l4lacn48r.png&lt;/a&gt; &lt;a href=&quot;\nhttp://shareimage.org/images/ciwm9m3l0bsq9t6fbh61.png&quot; rel=&quot;nofollow&quot; target=&quot;_NEW&quot;&gt;\nhttp://shareimage.org/images/ciwm9m3l0bsq9t6fbh61.png&lt;/a&gt;","torrent":{"xt":"urn:btih:5776c6fdef591bcf76427cc61058a93c1f3474ef","amp;dn":"Game+of+Death+2010.720p.BRRip.x264.Feel-Free","amp;tr":["udp%3A%2F%2Ftracker.openbittorrent.com%3A80","udp%3A%2F%2Fopen.demonii.com%3A1337","udp%3A%2F%2Ftracker.coppersurfer.tk%3A6969","udp%3A%2F%2Fexodus.desync.com%3A6969"],"infoHash":"5776c6fdef591bcf76427cc61058a93c1f3474ef","infoHashBuffer":{"type":"Buffer","data":[87,118,198,253,239,89,27,207,118,66,124,198,16,88,169,60,31,52,116,239]},"announce":[],"urlList":[]}}